<?xml version="1.0" standalone="no"?>
<!DOCTYPE svg PUBLIC "-//W3C//DTD SVG 20010904//EN"
 "http://www.w3.org/TR/2001/REC-SVG-20010904/DTD/svg10.dtd">
<svg version="1.0" xmlns="http://www.w3.org/2000/svg"
 width="2000.000000pt" height="2679.000000pt" viewBox="0 0 2000.000000 2679.000000"
 preserveAspectRatio="xMidYMid meet">
<metadata>
Created by potrace 1.15, written by Peter Selinger 2001-2017
</metadata>
<g transform="translate(0.000000,2679.000000) scale(0.100000,-0.100000)"
fill="#000000" stroke="none">
<path d="M2760 26775 c-1064 -133 -1964 -784 -2429 -1755 -355 -743 -407
-1609 -143 -2390 285 -842 908 -1523 1712 -1873 739 -322 1595 -336 2345 -40
914 361 1612 1145 1865 2098 84 313 104 480 104 840 0 245 -4 312 -22 432
-110 730 -415 1333 -928 1834 -465 453 -1038 740 -1684 840 -178 28 -644 36
-820 14z"/>
</g>
</svg>
