<?xml version="1.0" standalone="no"?>
<!DOCTYPE svg PUBLIC "-//W3C//DTD SVG 20010904//EN"
 "http://www.w3.org/TR/2001/REC-SVG-20010904/DTD/svg10.dtd">
<svg version="1.0" xmlns="http://www.w3.org/2000/svg"
 width="300.000000pt" height="150.000000pt" viewBox="0 0 300.000000 150.000000"
 preserveAspectRatio="xMidYMid meet">

<g transform="translate(0.000000,150.000000) scale(0.100000,-0.100000)"
fill="#000000" stroke="none">
<path d="M1817 1093 c-7 -11 10 -40 18 -31 4 4 3 14 -3 24 -5 9 -12 12 -15 7z"/>
<path d="M1420 1066 c-72 -21 -92 -32 -138 -71 -41 -36 -83 -98 -97 -142 l-6
-23 320 0 c196 0 321 -4 321 -9 0 -6 11 -22 25 -37 16 -17 22 -31 16 -37 -41
-41 -440 -62 -610 -33 -109 19 -133 32 -104 56 10 8 22 23 26 33 9 23 -18 22
-86 -3 -61 -23 -90 -50 -85 -76 5 -27 62 -61 124 -75 64 -14 83 -39 82 -108
-1 -56 24 -81 83 -86 24 -2 71 -13 104 -25 148 -54 315 11 396 156 26 46 35
53 76 63 85 22 133 55 133 91 0 21 -49 52 -111 71 -63 19 -66 22 -87 70 -62
142 -240 228 -382 185z m-183 -557 c2 -16 -1 -19 -9 -11 -5 5 -7 15 -4 21 10
15 12 14 13 -10z"/>
<path d="M1805 1015 c-29 -28 -32 -55 -7 -83 29 -35 67 -38 96 -8 33 32 33 60
1 91 -13 14 -33 25 -45 25 -11 0 -32 -11 -45 -25z"/>
</g>
</svg>
